<svg width="515" height="454" viewBox="0 0 515 454" fill="none" xmlns="http://www.w3.org/2000/svg">
<path d="M175.71 71.4822C175.241 72.1199 174.594 72.585 173.86 72.8109C173.125 73.0367 172.342 73.0118 171.622 72.7397C171.403 72.6713 171.189 72.5886 170.979 72.4921C171.216 69.8246 171.099 67.1354 170.631 64.5021C170.448 66.7656 169.923 68.9837 169.078 71.0728C168.389 70.3432 167.824 69.4929 167.41 68.5598C166.639 66.629 166.128 64.5937 165.891 62.5131C164.75 55.4244 163.624 48.0499 165.486 41.1224C168.214 31.0026 176.816 23.7276 180.409 13.9091L182.179 12.2319C185.208 17.6778 185.343 24.4449 184.107 30.6201C182.879 36.8076 180.403 42.6148 178.446 48.5818C176.489 54.5488 175.022 60.8958 175.931 67.1396C176.139 68.6098 176.458 70.2256 175.71 71.4822Z" fill="#2F2E41"/>
<path d="M136.372 157.11L124.837 212.796L175.22 230.116L167.811 157.11H136.372Z" fill="#FFB6B6"/>
<path d="M491.906 452.633H514.737V342.156C514.707 313.644 503.962 286.31 484.862 266.149C465.761 245.989 439.863 234.648 412.851 234.616H200.667C173.654 234.648 147.756 245.989 128.656 266.149C109.555 286.31 98.8105 313.644 98.78 342.156V452.633H121.611V377.159C121.642 348.382 132.486 320.793 151.764 300.445C171.043 280.097 197.181 268.651 224.445 268.619H389.072C416.336 268.651 442.475 280.097 461.753 300.445C481.032 320.793 491.876 348.382 491.906 377.159V452.633Z" fill="#E6E6E6"/>
<path d="M214.471 394.837L190.138 387.062C188.556 380.199 187.758 373.16 187.761 366.097C187.773 364.502 188.214 362.943 189.035 361.603C189.855 360.263 191.02 359.197 192.393 358.53C193.766 357.864 195.291 357.623 196.789 357.838C198.287 358.052 199.696 358.713 200.851 359.741C213.901 371.556 233.017 377.861 245.353 391.324C250.459 396.982 254.293 403.781 256.571 411.216C258.849 418.65 259.512 426.531 258.512 434.273L263.838 452.456C251.918 451.548 240.327 447.923 229.862 441.831C219.397 435.739 210.307 427.325 203.22 417.168C199.297 411.429 196.075 405.191 193.629 398.602C203.949 397.366 214.471 394.837 214.471 394.837Z" fill="#F2F2F2"/>
<path d="M277.887 424.613L290.297 420.647C290.313 420.577 290.329 420.508 290.345 420.438C290.688 418.836 290.579 417.162 290.032 415.625C289.485 414.087 288.523 412.752 287.265 411.785C286.007 410.817 284.508 410.26 282.954 410.182C281.399 410.104 279.857 410.507 278.517 411.344C272.884 414.876 266.628 417.918 262.135 422.821C259.531 425.707 257.576 429.174 256.414 432.966C255.252 436.758 254.914 440.778 255.424 444.726L252.707 454C258.787 453.537 264.699 451.688 270.037 448.581C275.374 445.474 280.01 441.182 283.625 436.002C285.625 433.075 287.269 429.893 288.516 426.533C283.253 425.902 277.887 424.613 277.887 424.613Z" fill="#F2F2F2"/>
<path d="M378.347 153.142H330.018C329.335 153.143 328.679 153.431 328.197 153.942C327.714 154.452 327.443 155.145 327.444 155.866V236.447H380.928V155.866C380.928 155.509 380.862 155.154 380.732 154.824C380.602 154.493 380.412 154.193 380.172 153.94C379.933 153.686 379.648 153.486 379.335 153.349C379.022 153.212 378.686 153.142 378.347 153.142V153.142ZM354.345 198.927C352.834 198.919 351.386 198.282 350.318 197.154C349.249 196.026 348.645 194.498 348.638 192.903V183.609C348.64 182.013 349.242 180.483 350.312 179.355C351.382 178.227 352.833 177.593 354.345 177.593C355.857 177.593 357.308 178.227 358.378 179.355C359.448 180.483 360.05 182.013 360.052 183.609V192.903C360.045 194.498 359.441 196.026 358.373 197.154C357.304 198.282 355.856 198.919 354.345 198.927V198.927Z" fill="#3F3D56"/>
<path d="M458.374 27.3875H251.789C250.014 27.3905 248.313 28.136 247.058 29.4607C245.803 30.7853 245.097 32.5811 245.094 34.4544V181.593C245.095 183.467 245.801 185.263 247.057 186.588C248.312 187.913 250.014 188.658 251.789 188.66H458.374C460.149 188.658 461.851 187.913 463.107 186.588C464.362 185.263 465.068 183.467 465.07 181.593V34.4544C465.067 32.5811 464.36 30.7853 463.105 29.4607C461.85 28.136 460.149 27.3905 458.374 27.3875V27.3875Z" fill="#3F3D56"/>
<path d="M456.65 32.4919H253.515C252.565 32.494 251.654 32.894 250.983 33.604C250.312 34.314 249.935 35.2761 249.935 36.2792V179.771C249.936 180.772 250.314 181.733 250.985 182.441C251.656 183.15 252.566 183.548 253.515 183.55H456.65C457.599 183.548 458.509 183.15 459.18 182.441C459.851 181.733 460.229 180.772 460.23 179.771V36.2791C460.23 35.2761 459.853 34.314 459.182 33.604C458.511 32.894 457.6 32.494 456.65 32.4919V32.4919Z" fill="white"/>
<path d="M327.278 233.869V241.644C327.279 242.046 327.431 242.433 327.7 242.717C327.97 243.002 328.336 243.163 328.718 243.163H379.654C380.035 243.161 380.401 243.001 380.67 242.716C380.94 242.431 381.092 242.046 381.094 241.644V233.869H327.278Z" fill="#3F3D56"/>
<path d="M417.083 245.869H296.229C295.898 245.869 295.571 245.791 295.273 245.641C294.974 245.49 294.711 245.272 294.502 245.001C294.294 244.73 294.145 244.413 294.068 244.073C293.99 243.734 293.985 243.38 294.053 243.039L295.928 233.638C296.035 233.112 296.309 232.641 296.705 232.302C297.1 231.963 297.594 231.777 298.104 231.775H415.208C415.717 231.777 416.211 231.963 416.606 232.302C417.002 232.641 417.276 233.112 417.383 233.638L419.258 243.039C419.326 243.38 419.321 243.734 419.244 244.073C419.166 244.413 419.017 244.73 418.809 245.001C418.601 245.272 418.337 245.49 418.039 245.641C417.74 245.791 417.413 245.869 417.083 245.869V245.869Z" fill="#3F3D56"/>
<path d="M302.221 233.468H299.424C299.169 233.468 298.962 233.687 298.962 233.956V235.337C298.962 235.607 299.169 235.825 299.424 235.825H302.221C302.477 235.825 302.684 235.607 302.684 235.337V233.956C302.684 233.687 302.477 233.468 302.221 233.468Z" fill="#E6E6E6"/>
<path d="M309.666 233.468H306.869C306.613 233.468 306.406 233.687 306.406 233.956V235.337C306.406 235.607 306.613 235.825 306.869 235.825H309.666C309.921 235.825 310.128 235.607 310.128 235.337V233.956C310.128 233.687 309.921 233.468 309.666 233.468Z" fill="#E6E6E6"/>
<path d="M317.11 233.468H314.313C314.058 233.468 313.851 233.687 313.851 233.956V235.337C313.851 235.607 314.058 235.825 314.313 235.825H317.11C317.366 235.825 317.573 235.607 317.573 235.337V233.956C317.573 233.687 317.366 233.468 317.11 233.468Z" fill="#E6E6E6"/>
<path d="M324.555 233.468H321.757C321.502 233.468 321.295 233.687 321.295 233.956V235.337C321.295 235.607 321.502 235.825 321.757 235.825H324.555C324.81 235.825 325.017 235.607 325.017 235.337V233.956C325.017 233.687 324.81 233.468 324.555 233.468Z" fill="#E6E6E6"/>
<path d="M331.999 233.468H329.202C328.946 233.468 328.739 233.687 328.739 233.956V235.337C328.739 235.607 328.946 235.825 329.202 235.825H331.999C332.254 235.825 332.461 235.607 332.461 235.337V233.956C332.461 233.687 332.254 233.468 331.999 233.468Z" fill="#E6E6E6"/>
<path d="M339.443 233.468H336.646C336.391 233.468 336.184 233.687 336.184 233.956V235.337C336.184 235.607 336.391 235.825 336.646 235.825H339.443C339.699 235.825 339.906 235.607 339.906 235.337V233.956C339.906 233.687 339.699 233.468 339.443 233.468Z" fill="#E6E6E6"/>
<path d="M346.888 233.468H344.09C343.835 233.468 343.628 233.687 343.628 233.956V235.337C343.628 235.607 343.835 235.825 344.09 235.825H346.888C347.143 235.825 347.35 235.607 347.35 235.337V233.956C347.35 233.687 347.143 233.468 346.888 233.468Z" fill="#E6E6E6"/>
<path d="M354.332 233.468H351.535C351.279 233.468 351.072 233.687 351.072 233.956V235.337C351.072 235.607 351.279 235.825 351.535 235.825H354.332C354.587 235.825 354.794 235.607 354.794 235.337V233.956C354.794 233.687 354.587 233.468 354.332 233.468Z" fill="#E6E6E6"/>
<path d="M361.776 233.468H358.979C358.724 233.468 358.517 233.687 358.517 233.956V235.337C358.517 235.607 358.724 235.825 358.979 235.825H361.776C362.032 235.825 362.239 235.607 362.239 235.337V233.956C362.239 233.687 362.032 233.468 361.776 233.468Z" fill="#E6E6E6"/>
<path d="M369.221 233.468H366.424C366.168 233.468 365.961 233.687 365.961 233.956V235.337C365.961 235.607 366.168 235.825 366.424 235.825H369.221C369.476 235.825 369.683 235.607 369.683 235.337V233.956C369.683 233.687 369.476 233.468 369.221 233.468Z" fill="#E6E6E6"/>
<path d="M376.665 233.468H373.868C373.613 233.468 373.406 233.687 373.406 233.956V235.337C373.406 235.607 373.613 235.825 373.868 235.825H376.665C376.921 235.825 377.128 235.607 377.128 235.337V233.956C377.128 233.687 376.921 233.468 376.665 233.468Z" fill="#E6E6E6"/>
<path d="M384.109 233.468H381.312C381.057 233.468 380.85 233.687 380.85 233.956V235.337C380.85 235.607 381.057 235.825 381.312 235.825H384.109C384.365 235.825 384.572 235.607 384.572 235.337V233.956C384.572 233.687 384.365 233.468 384.109 233.468Z" fill="#E6E6E6"/>
<path d="M391.554 233.468H388.757C388.501 233.468 388.294 233.687 388.294 233.956V235.337C388.294 235.607 388.501 235.825 388.757 235.825H391.554C391.809 235.825 392.016 235.607 392.016 235.337V233.956C392.016 233.687 391.809 233.468 391.554 233.468Z" fill="#E6E6E6"/>
<path d="M398.998 233.468H396.201C395.946 233.468 395.739 233.687 395.739 233.956V235.337C395.739 235.607 395.946 235.825 396.201 235.825H398.998C399.254 235.825 399.461 235.607 399.461 235.337V233.956C399.461 233.687 399.254 233.468 398.998 233.468Z" fill="#E6E6E6"/>
<path d="M406.443 233.468H403.646C403.39 233.468 403.183 233.687 403.183 233.956V235.337C403.183 235.607 403.39 235.825 403.646 235.825H406.443C406.698 235.825 406.905 235.607 406.905 235.337V233.956C406.905 233.687 406.698 233.468 406.443 233.468Z" fill="#E6E6E6"/>
<path d="M413.887 233.468H411.09C410.834 233.468 410.627 233.687 410.627 233.956V235.337C410.627 235.607 410.834 235.825 411.09 235.825H413.887C414.142 235.825 414.349 235.607 414.349 235.337V233.956C414.349 233.687 414.142 233.468 413.887 233.468Z" fill="#E6E6E6"/>
<path d="M302.133 237.397H299.336C299.081 237.397 298.874 237.615 298.874 237.885V239.266C298.874 239.535 299.081 239.754 299.336 239.754H302.133C302.389 239.754 302.596 239.535 302.596 239.266V237.885C302.596 237.615 302.389 237.397 302.133 237.397Z" fill="#E6E6E6"/>
<path d="M309.578 237.397H306.781C306.525 237.397 306.318 237.615 306.318 237.885V239.266C306.318 239.535 306.525 239.754 306.781 239.754H309.578C309.833 239.754 310.04 239.535 310.04 239.266V237.885C310.04 237.615 309.833 237.397 309.578 237.397Z" fill="#E6E6E6"/>
<path d="M317.022 237.397H314.225C313.97 237.397 313.762 237.615 313.762 237.885V239.266C313.762 239.535 313.97 239.754 314.225 239.754H317.022C317.278 239.754 317.485 239.535 317.485 239.266V237.885C317.485 237.615 317.278 237.397 317.022 237.397Z" fill="#E6E6E6"/>
<path d="M324.467 237.397H321.669C321.414 237.397 321.207 237.615 321.207 237.885V239.266C321.207 239.535 321.414 239.754 321.669 239.754H324.467C324.722 239.754 324.929 239.535 324.929 239.266V237.885C324.929 237.615 324.722 237.397 324.467 237.397Z" fill="#E6E6E6"/>
<path d="M331.911 237.397H329.114C328.858 237.397 328.651 237.615 328.651 237.885V239.266C328.651 239.535 328.858 239.754 329.114 239.754H331.911C332.166 239.754 332.373 239.535 332.373 239.266V237.885C332.373 237.615 332.166 237.397 331.911 237.397Z" fill="#E6E6E6"/>
<path d="M339.355 237.397H336.558C336.303 237.397 336.096 237.615 336.096 237.885V239.266C336.096 239.535 336.303 239.754 336.558 239.754H339.355C339.611 239.754 339.818 239.535 339.818 239.266V237.885C339.818 237.615 339.611 237.397 339.355 237.397Z" fill="#E6E6E6"/>
<path d="M346.8 237.397H344.003C343.747 237.397 343.54 237.615 343.54 237.885V239.266C343.54 239.535 343.747 239.754 344.003 239.754H346.8C347.055 239.754 347.262 239.535 347.262 239.266V237.885C347.262 237.615 347.055 237.397 346.8 237.397Z" fill="#E6E6E6"/>
<path d="M354.244 237.397H351.447C351.191 237.397 350.984 237.615 350.984 237.885V239.266C350.984 239.535 351.191 239.754 351.447 239.754H354.244C354.499 239.754 354.707 239.535 354.707 239.266V237.885C354.707 237.615 354.499 237.397 354.244 237.397Z" fill="#E6E6E6"/>
<path d="M361.688 237.397H358.891C358.636 237.397 358.429 237.615 358.429 237.885V239.266C358.429 239.535 358.636 239.754 358.891 239.754H361.688C361.944 239.754 362.151 239.535 362.151 239.266V237.885C362.151 237.615 361.944 237.397 361.688 237.397Z" fill="#E6E6E6"/>
<path d="M369.133 237.397H366.336C366.08 237.397 365.873 237.615 365.873 237.885V239.266C365.873 239.535 366.08 239.754 366.336 239.754H369.133C369.388 239.754 369.595 239.535 369.595 239.266V237.885C369.595 237.615 369.388 237.397 369.133 237.397Z" fill="#E6E6E6"/>
<path d="M376.577 237.397H373.78C373.524 237.397 373.317 237.615 373.317 237.885V239.266C373.317 239.535 373.524 239.754 373.78 239.754H376.577C376.832 239.754 377.04 239.535 377.04 239.266V237.885C377.04 237.615 376.832 237.397 376.577 237.397Z" fill="#E6E6E6"/>
<path d="M384.021 237.397H381.224C380.969 237.397 380.762 237.615 380.762 237.885V239.266C380.762 239.535 380.969 239.754 381.224 239.754H384.021C384.277 239.754 384.484 239.535 384.484 239.266V237.885C384.484 237.615 384.277 237.397 384.021 237.397Z" fill="#E6E6E6"/>
<path d="M391.466 237.397H388.669C388.413 237.397 388.206 237.615 388.206 237.885V239.266C388.206 239.535 388.413 239.754 388.669 239.754H391.466C391.721 239.754 391.928 239.535 391.928 239.266V237.885C391.928 237.615 391.721 237.397 391.466 237.397Z" fill="#E6E6E6"/>
<path d="M398.91 237.397H396.113C395.858 237.397 395.651 237.615 395.651 237.885V239.266C395.651 239.535 395.858 239.754 396.113 239.754H398.91C399.166 239.754 399.373 239.535 399.373 239.266V237.885C399.373 237.615 399.166 237.397 398.91 237.397Z" fill="#E6E6E6"/>
<path d="M406.355 237.397H403.558C403.302 237.397 403.095 237.615 403.095 237.885V239.266C403.095 239.535 403.302 239.754 403.558 239.754H406.355C406.61 239.754 406.817 239.535 406.817 239.266V237.885C406.817 237.615 406.61 237.397 406.355 237.397Z" fill="#E6E6E6"/>
<path d="M413.799 237.397H411.002C410.746 237.397 410.539 237.615 410.539 237.885V239.266C410.539 239.535 410.746 239.754 411.002 239.754H413.799C414.054 239.754 414.261 239.535 414.261 239.266V237.885C414.261 237.615 414.054 237.397 413.799 237.397Z" fill="#E6E6E6"/>
<path d="M363.922 242.111H335.069C334.814 242.111 334.607 242.33 334.607 242.599V243.98C334.607 244.25 334.814 244.468 335.069 244.468H363.922C364.177 244.468 364.384 244.25 364.384 243.98V242.599C364.384 242.33 364.177 242.111 363.922 242.111Z" fill="#E6E6E6"/>
<path d="M426.361 68.513V144.039C426.361 149.097 424.457 153.947 421.068 157.524C417.68 161.1 413.084 163.11 408.292 163.11H318.734C315.208 163.111 311.759 162.024 308.811 159.982C305.863 157.941 303.545 155.034 302.143 151.62C301.673 150.491 301.314 149.315 301.072 148.109C302.976 148.887 305 149.284 307.041 149.279H396.6C401.016 149.273 405.249 147.418 408.372 144.123C411.494 140.827 413.251 136.359 413.257 131.698V56.1721C413.261 54.0175 412.885 51.881 412.149 49.8716C413.291 50.127 414.405 50.5057 415.474 51.0017C418.709 52.4821 421.463 54.9286 423.398 58.0399C425.332 61.1512 426.362 64.7917 426.361 68.513Z" fill="#F2F2F2"/>
<path d="M92.2443 369.002L83.3614 374.807L57.1921 340.855L70.3019 332.288L92.2443 369.002Z" fill="#FFB6B6"/>
<path d="M99.9132 381.129L92.7677 384.496L88.4807 377.976L88.2257 386.636L69.2742 395.565C68.3658 395.993 67.3515 396.104 66.3794 395.88C65.4074 395.657 64.5285 395.111 63.871 394.323C63.2135 393.535 62.8119 392.546 62.7247 391.5C62.6376 390.454 62.8695 389.406 63.3867 388.509L73.8548 370.346L70.8102 363.148L87.1529 356.65L99.9132 381.129Z" fill="#2F2E41"/>
<path d="M67.3606 362.47L82.3633 347.125C71.2171 318.094 70.3263 300.099 54.8741 264.988C91.5361 272.902 117.747 272.421 148.068 265.325C158.332 262.96 184.817 241.367 182.64 230.295C182.538 229.778 182.418 229.265 182.279 228.757C179.025 217.045 181.316 199.109 174.272 186.112C161.239 180.926 141.438 198.439 125.949 209.114C118.48 214.262 123.947 221.276 118.369 223.115L96.9843 230.442L44.5183 221.498C41.9827 221.093 39.3961 221.221 36.9076 221.875C34.4191 222.529 32.0779 223.697 30.019 225.311C27.96 226.925 26.2241 228.953 24.9111 231.278C23.5982 233.603 22.7342 236.18 22.3691 238.859C22.2803 239.46 22.216 240.065 22.1761 240.672C24.5902 254.777 27.1067 268.511 29.8159 281.549C30.6905 285.757 29.2141 293.825 32.5028 293.945C35.7915 294.065 34.4667 302.41 35.4909 306.49C41.7964 331.605 45.7838 343.76 67.3606 362.47Z" fill="#2F2E41"/>
<path d="M38.6456 429.779L29.3912 424.68L44.0331 383.741L57.6915 391.266L38.6456 429.779Z" fill="#FFB6B6"/>
<path d="M37.1031 399.215L51.9423 409.999C70.1294 382.237 81.9382 345.14 90.7325 303.63C124.974 287.864 154.936 269.827 175.816 245.633C179.245 241.576 181.042 236.27 180.829 230.839C180.615 225.408 178.406 220.277 174.67 216.535C174.304 216.174 173.927 215.828 173.537 215.496C164.493 207.893 144.407 212.268 131.57 205.913L108.636 239.415L111.272 247.218L103.294 251.318L96.5581 254.779L88.8471 258.741L63.5693 271.729C61.2776 272.938 59.2354 274.614 57.5605 276.66C55.8855 278.707 54.611 281.083 53.8103 283.651C53.0097 286.22 52.6989 288.931 52.8958 291.627C53.0926 294.323 53.7933 296.952 54.9574 299.361C55.2128 299.906 55.49 300.439 55.7889 300.961L46.401 350.325C46.401 350.325 48.9842 358.918 44.9196 358.114C40.8549 357.31 43.0699 367.84 43.0699 367.84L37.1031 399.215Z" fill="#2F2E41"/>
<path d="M33.0412 452.341L26.1041 448.519L28.2841 440.924L21.6945 446.09L3.29544 435.955C2.41348 435.469 1.70173 434.699 1.26411 433.756C0.826484 432.813 0.685896 431.747 0.862874 430.713C1.03985 429.68 1.52513 428.734 2.24785 428.012C2.97057 427.291 3.89289 426.832 4.88017 426.703L24.8691 424.086L28.3249 417.097L43.2979 426.584L33.0412 452.341Z" fill="#2F2E41"/>
<path d="M235.314 237.722L224.49 210.114L215.962 215.115L221.112 243.199C220.597 244.978 220.561 246.874 221.01 248.673C221.459 250.472 222.375 252.104 223.654 253.384C224.934 254.664 226.526 255.542 228.252 255.919C229.979 256.297 231.77 256.158 233.426 255.52C235.082 254.881 236.536 253.768 237.625 252.305C238.714 250.842 239.395 249.087 239.591 247.238C239.787 245.389 239.491 243.519 238.735 241.837C237.979 240.156 236.795 238.731 235.314 237.722V237.722Z" fill="#FFB6B6"/>
<path d="M53.6911 19.4084L70.1598 43.7099L77.3921 36.8002L66.3472 10.6779C66.4676 8.82158 66.0951 6.96663 65.2714 5.32155C64.4478 3.67647 63.2057 2.3065 61.6848 1.36566C60.1639 0.424814 58.4245 -0.0496047 56.6622 -0.00426147C54.8999 0.0410818 53.1844 0.60439 51.7088 1.62233C50.2331 2.64027 49.0558 4.07249 48.309 5.75797C47.5623 7.44345 47.2758 9.31537 47.4818 11.1633C47.6877 13.0112 48.378 14.7619 49.4749 16.2184C50.5718 17.675 52.032 18.7797 53.6911 19.4084H53.6911Z" fill="#FFB6B6"/>
<path d="M128.06 173.434C117.378 190.922 156.512 229.025 177.114 220.115C180.722 218.555 193.131 213.402 184.649 206.258C176.167 199.113 185.633 207.109 185.856 202.458C186.006 199.349 183.725 192.528 186.105 192.82C188.484 193.113 189.85 185.849 184.668 183.998C182.866 183.319 181.284 182.111 180.11 180.517C178.935 178.923 178.215 177.008 178.035 174.997C177.539 155.829 183.69 135.817 183.69 135.817L208.797 203.557C208.797 203.557 208.611 215.277 211.813 211.695C215.015 208.114 214.782 219.705 214.782 219.705C214.782 219.705 219.543 223.212 216.805 225.164C214.067 227.116 219.752 233.116 219.752 233.116L233.017 232.116C233.017 232.116 232.81 221.715 230.545 219.415C228.28 217.115 229.392 213.495 229.392 213.495C229.392 213.495 224.723 208.911 227.449 203.512C230.175 198.113 207.598 101.543 207.598 101.543C206.693 96.8964 204.589 92.6047 201.518 89.1418C198.447 85.6789 194.528 83.1798 190.196 81.9207L175.868 77.757L173.324 67.103H153.15L149.636 74.1035L117.421 71.1033C117.421 71.1033 85.5444 40.491 87.1008 38.1007C88.6571 35.7104 83.7158 30.1143 83.7158 30.1143C83.7158 30.1143 79.4957 28.6565 81.877 27.8781C84.2583 27.0998 79.7572 25.3002 79.7572 25.3002C79.7572 25.3002 75.5885 24.144 77.5546 22.6217C79.5207 21.0993 70.9931 20.0992 70.9931 20.0992L59.9288 29.6275L62.1651 33.6298C62.1651 33.6298 60.8016 39.0796 62.581 37.09C64.3604 35.1005 64.6954 40.8743 64.6954 40.8743C64.6954 40.8743 65.6042 47.1967 70.9931 49.1016C76.3819 51.0064 80.4682 69.1032 80.4682 69.1032L125.949 109.106C119.022 117.498 120.671 126.274 126.807 135.25L128.06 173.434Z" fill="#F8DF00"/>
<path d="M162.782 60.0242C174.847 60.0242 184.628 49.701 184.628 36.9667C184.628 24.2324 174.847 13.9092 162.782 13.9092C150.717 13.9092 140.937 24.2324 140.937 36.9667C140.937 49.701 150.717 60.0242 162.782 60.0242Z" fill="#FFB6B6"/>
<path d="M181.852 30.1001C181.293 30.2701 173.087 31.4002 169.534 32.1002C166.047 32.7903 165.441 28.0999 162.589 28.98C162.591 28.9595 162.587 28.9389 162.58 28.92C162.137 26.4348 161.382 24.0232 160.334 21.7494C160.714 23.9271 160.769 26.1544 160.495 28.3499C160.493 28.4071 160.487 28.464 160.476 28.5199C160.467 28.6199 160.448 28.7099 160.438 28.8099C157.425 27.4098 155.511 28.6599 153.427 29.1C151.096 29.59 149.277 30.6701 150.584 39.1008C153.266 56.4421 167.213 62.6326 164.797 74.1035C164.323 76.3737 163.129 79.2139 161.632 79.924C161.19 77.4388 160.435 75.0272 159.387 72.7534C159.767 74.9312 159.821 77.1584 159.548 79.3539C157.226 76.7037 155.549 67.443 147.742 60.1024C145.818 58.3023 136.182 47.6214 135.026 45.1012C135.381 47.1162 135.552 49.1623 135.538 51.2117C135.54 52.5834 135.451 53.9534 135.272 55.312C135.272 55.3996 135.263 55.4868 135.244 55.5721C135.235 55.7321 135.206 55.8721 135.187 56.0221C135.168 56.1921 135.14 56.3521 135.111 56.5221C131.956 56.0421 129.161 55.462 127.844 54.1019C121.439 47.5214 129.256 34.7004 133.529 23.0995C139.64 6.4882 157.387 4.27802 159.112 4.09801C166.711 3.28795 179.55 5.00808 183.747 14.0988C186.684 20.4693 184.808 29.2 181.852 30.1001Z" fill="#2F2E41"/>
<path d="M135.789 33.8496L151.613 7.86731C147.821 5.54354 143.502 4.34787 139.117 4.40742C136.932 4.45536 134.781 4.9888 132.804 5.97296C130.827 6.95713 129.069 8.36994 127.644 10.1193C124.412 14.3588 123.857 20.3519 125.068 25.6412C125.486 27.468 133.45 21.0405 131.555 24.0407C129.999 26.3897 127.455 36.2632 126.817 39.0419C125.791 43.514 122.967 48.1047 125.482 51.8634C128.456 56.3082 133.763 58.5176 138.915 58.742C144.066 58.9663 149.136 57.4596 154.031 55.753L135.789 33.8496Z" fill="#2F2E41"/>
<path d="M141.869 32.8249C141.641 32.8246 141.42 32.7372 141.248 32.5787C141.075 32.4202 140.963 32.2014 140.932 31.9625C140.9 31.7236 140.952 31.4808 141.076 31.2787C141.201 31.0766 141.391 30.9289 141.61 30.8628C141.859 30.4302 141.757 28.6092 141.675 27.1379C141.367 21.6135 140.851 12.3677 149.356 6.12649C149.562 5.97509 149.817 5.91638 150.064 5.96327C150.311 6.01016 150.531 6.1588 150.674 6.37651C150.818 6.59422 150.873 6.86315 150.829 7.12414C150.785 7.38514 150.644 7.61682 150.437 7.76822C142.806 13.3697 143.264 21.5847 143.567 27.0202C143.74 30.1279 143.866 32.3726 142.08 32.8C142.011 32.8166 141.94 32.825 141.869 32.8249Z" fill="#F8DF00"/>
<path d="M337.306 94.8569H322.969C322.588 94.8569 322.224 94.6975 321.955 94.4137C321.686 94.1299 321.535 93.745 321.535 93.3436C321.535 92.9422 321.686 92.5573 321.955 92.2735C322.224 91.9897 322.588 91.8303 322.969 91.8303H337.306C337.687 91.8303 338.051 91.9897 338.32 92.2735C338.589 92.5573 338.74 92.9422 338.74 93.3436C338.74 93.745 338.589 94.1299 338.32 94.4137C338.051 94.6975 337.687 94.8569 337.306 94.8569V94.8569Z" fill="#F8DF00"/>
<path d="M363.114 94.8569H348.777C348.588 94.8569 348.402 94.8178 348.228 94.7417C348.054 94.6657 347.896 94.5542 347.763 94.4137C347.63 94.2731 347.524 94.1063 347.452 93.9227C347.38 93.7391 347.343 93.5423 347.343 93.3436C347.343 93.1449 347.38 92.9481 347.452 92.7644C347.524 92.5808 347.63 92.414 347.763 92.2735C347.896 92.133 348.054 92.0215 348.228 91.9454C348.402 91.8694 348.588 91.8303 348.777 91.8303H363.114C363.303 91.8303 363.489 91.8694 363.663 91.9454C363.837 92.0215 363.995 92.133 364.128 92.2735C364.261 92.414 364.367 92.5808 364.439 92.7644C364.511 92.9481 364.548 93.1449 364.548 93.3436C364.548 93.5423 364.511 93.7391 364.439 93.9227C364.367 94.1063 364.261 94.2731 364.128 94.4137C363.995 94.5542 363.837 94.6657 363.663 94.7417C363.489 94.8178 363.303 94.8569 363.114 94.8569Z" fill="#F8DF00"/>
<path d="M376.018 106.964H361.681C361.492 106.964 361.306 106.924 361.132 106.848C360.958 106.772 360.8 106.661 360.667 106.52C360.534 106.38 360.428 106.213 360.356 106.029C360.284 105.846 360.247 105.649 360.247 105.45C360.247 105.251 360.284 105.055 360.356 104.871C360.428 104.687 360.534 104.521 360.667 104.38C360.8 104.24 360.958 104.128 361.132 104.052C361.306 103.976 361.492 103.937 361.681 103.937H376.018C376.207 103.937 376.393 103.976 376.567 104.052C376.741 104.128 376.899 104.24 377.032 104.38C377.165 104.521 377.271 104.687 377.343 104.871C377.415 105.055 377.452 105.251 377.452 105.45C377.452 105.649 377.415 105.846 377.343 106.029C377.271 106.213 377.165 106.38 377.032 106.52C376.899 106.661 376.741 106.772 376.567 106.848C376.393 106.924 376.207 106.964 376.018 106.964Z" fill="#F8DF00"/>
<path d="M350.29 106.964H322.969C322.588 106.964 322.224 106.804 321.955 106.52C321.686 106.236 321.535 105.852 321.535 105.45C321.535 105.049 321.686 104.664 321.955 104.38C322.224 104.096 322.588 103.937 322.969 103.937H350.29C350.67 103.937 351.034 104.096 351.303 104.38C351.572 104.664 351.723 105.049 351.723 105.45C351.723 105.852 351.572 106.236 351.303 106.52C351.034 106.804 350.67 106.964 350.29 106.964V106.964Z" fill="#F8DF00"/>
<path d="M401.906 94.8569H374.585C374.204 94.8569 373.84 94.6975 373.571 94.4137C373.302 94.1299 373.151 93.745 373.151 93.3436C373.151 92.9422 373.302 92.5573 373.571 92.2735C373.84 91.9897 374.204 91.8303 374.585 91.8303H401.906C402.094 91.8303 402.28 91.8694 402.454 91.9454C402.628 92.0215 402.786 92.133 402.919 92.2735C403.053 92.414 403.158 92.5808 403.23 92.7644C403.302 92.9481 403.339 93.1449 403.339 93.3436C403.339 93.5423 403.302 93.7391 403.23 93.9227C403.158 94.1063 403.053 94.2731 402.919 94.4137C402.786 94.5542 402.628 94.6657 402.454 94.7417C402.28 94.8178 402.094 94.8569 401.906 94.8569Z" fill="#F8DF00"/>
<path d="M347.122 71.9312H319.801C319.613 71.9317 319.426 71.8929 319.252 71.8171C319.077 71.7412 318.919 71.6299 318.785 71.4893C318.652 71.3487 318.546 71.1817 318.473 70.9979C318.401 70.814 318.364 70.6169 318.364 70.4178C318.364 70.2188 318.401 70.0216 318.473 69.8378C318.546 69.6539 318.652 69.4869 318.785 69.3464C318.919 69.2058 319.077 69.0944 319.252 69.0186C319.426 68.9427 319.613 68.904 319.801 68.9045H347.122C347.503 68.9045 347.867 69.0639 348.136 69.3477C348.405 69.6315 348.556 70.0165 348.556 70.4178C348.556 70.8192 348.405 71.2041 348.136 71.4879C347.867 71.7717 347.503 71.9312 347.122 71.9312V71.9312Z" fill="#F8DF00"/>
<path d="M349.369 80.7726C349.101 80.7727 348.84 80.6846 348.622 80.5205C348.404 80.3564 348.241 80.1245 348.154 79.8573C348.067 79.5901 348.061 79.301 348.138 79.0303C348.214 78.7595 348.369 78.5208 348.58 78.3474L355.576 72.6079C355.857 72.3772 356.09 72.0875 356.259 71.757C356.428 71.4265 356.531 71.0625 356.56 70.6879C356.59 70.3134 356.545 69.9365 356.429 69.5812C356.313 69.2259 356.128 68.8999 355.887 68.6239L350.013 61.9127C349.899 61.782 349.81 61.6288 349.752 61.4619C349.693 61.2949 349.667 61.1174 349.673 60.9396C349.68 60.7618 349.72 60.587 349.79 60.4254C349.861 60.2638 349.961 60.1185 350.085 59.9977C350.209 59.8769 350.354 59.783 350.512 59.7215C350.67 59.6599 350.838 59.6318 351.007 59.6388C351.175 59.6458 351.341 59.6878 351.494 59.7623C351.647 59.8368 351.785 59.9424 351.899 60.0731L360.621 70.0387C360.742 70.1766 360.834 70.3394 360.892 70.5168C360.95 70.6943 360.972 70.8825 360.958 71.0695C360.943 71.2566 360.892 71.4384 360.808 71.6035C360.723 71.7686 360.607 71.9133 360.466 72.0285L350.156 80.4874C349.931 80.6724 349.654 80.7728 349.369 80.7726Z" fill="#F8DF00"/>
<path d="M318.419 80.7726C318.687 80.7727 318.948 80.6846 319.165 80.5205C319.383 80.3564 319.547 80.1245 319.634 79.8573C319.721 79.5901 319.727 79.301 319.65 79.0303C319.574 78.7595 319.419 78.5208 319.208 78.3474L312.212 72.6079C311.931 72.3772 311.698 72.0875 311.529 71.757C311.359 71.4265 311.257 71.0625 311.227 70.6879C311.198 70.3134 311.243 69.9365 311.359 69.5812C311.475 69.2259 311.659 68.8999 311.901 68.6239L317.774 61.9127C317.889 61.782 317.978 61.6288 318.036 61.4619C318.094 61.2949 318.121 61.1174 318.114 60.9396C318.108 60.7618 318.068 60.587 317.997 60.4254C317.927 60.2638 317.827 60.1185 317.703 59.9977C317.579 59.8769 317.434 59.783 317.276 59.7215C317.118 59.6599 316.949 59.6318 316.781 59.6388C316.612 59.6458 316.447 59.6878 316.294 59.7623C316.141 59.8368 316.003 59.9424 315.889 60.0731L307.166 70.0387C307.046 70.1766 306.954 70.3394 306.896 70.5168C306.838 70.6943 306.815 70.8825 306.83 71.0695C306.844 71.2566 306.895 71.4384 306.98 71.6035C307.065 71.7686 307.181 71.9133 307.321 72.0285L317.631 80.4874C317.856 80.6724 318.134 80.7728 318.419 80.7726V80.7726Z" fill="#F8DF00"/>
<path d="M361.246 132.916H333.925C333.545 132.916 333.18 132.757 332.911 132.473C332.643 132.189 332.491 131.804 332.491 131.403C332.491 131.001 332.643 130.616 332.911 130.333C333.18 130.049 333.545 129.889 333.925 129.889H361.246C361.626 129.889 361.991 130.049 362.26 130.333C362.529 130.616 362.68 131.001 362.68 131.403C362.68 131.804 362.529 132.189 362.26 132.473C361.991 132.757 361.626 132.916 361.246 132.916V132.916Z" fill="#F8DF00"/>
<path d="M366.061 140.402C365.793 140.402 365.532 140.314 365.314 140.15C365.096 139.986 364.932 139.754 364.845 139.487C364.759 139.22 364.753 138.931 364.829 138.66C364.906 138.389 365.061 138.15 365.272 137.977L372.268 132.237C372.549 132.007 372.781 131.717 372.951 131.387C373.12 131.056 373.223 130.692 373.252 130.318C373.281 129.943 373.237 129.566 373.121 129.211C373.005 128.856 372.82 128.53 372.578 128.253L366.705 121.542C366.591 121.412 366.502 121.258 366.443 121.091C366.385 120.924 366.358 120.747 366.365 120.569C366.372 120.391 366.411 120.217 366.482 120.055C366.553 119.893 366.653 119.748 366.777 119.627C366.9 119.506 367.045 119.413 367.204 119.351C367.362 119.289 367.53 119.261 367.699 119.268C367.867 119.275 368.033 119.317 368.186 119.392C368.339 119.466 368.476 119.572 368.591 119.703L377.313 129.668C377.434 129.806 377.526 129.969 377.584 130.146C377.642 130.324 377.664 130.512 377.65 130.699C377.635 130.886 377.584 131.068 377.499 131.233C377.415 131.398 377.298 131.543 377.158 131.658L366.848 140.117C366.623 140.302 366.346 140.402 366.061 140.402Z" fill="#F8DF00"/>
<path d="M318.419 140.402C318.687 140.402 318.948 140.314 319.165 140.15C319.383 139.986 319.547 139.754 319.634 139.487C319.721 139.22 319.727 138.931 319.65 138.66C319.574 138.389 319.419 138.15 319.208 137.977L312.212 132.237C311.931 132.007 311.698 131.717 311.529 131.387C311.359 131.056 311.257 130.692 311.227 130.318C311.198 129.943 311.243 129.566 311.359 129.211C311.475 128.856 311.659 128.53 311.901 128.253L317.774 121.542C318.005 121.278 318.128 120.928 318.114 120.569C318.101 120.21 317.953 119.871 317.703 119.627C317.453 119.383 317.121 119.254 316.781 119.268C316.441 119.283 316.12 119.439 315.889 119.703L307.166 129.668C307.046 129.806 306.954 129.969 306.896 130.146C306.838 130.324 306.815 130.512 306.83 130.699C306.844 130.886 306.895 131.068 306.98 131.233C307.065 131.398 307.181 131.543 307.321 131.658L317.631 140.117C317.856 140.302 318.134 140.402 318.419 140.402V140.402Z" fill="#F8DF00"/>
<path d="M320.857 136.162L326.6 122.296C326.754 121.93 327.038 121.643 327.391 121.498C327.745 121.353 328.138 121.361 328.486 121.522C328.833 121.682 329.106 121.981 329.245 122.353C329.384 122.725 329.378 123.141 329.228 123.508L323.485 137.374C323.41 137.557 323.301 137.723 323.166 137.862C323.03 138 322.87 138.11 322.694 138.183C322.519 138.256 322.331 138.292 322.142 138.288C321.953 138.284 321.767 138.241 321.594 138.161C321.421 138.082 321.264 137.966 321.134 137.823C321.003 137.679 320.9 137.509 320.832 137.323C320.763 137.138 320.73 136.939 320.735 136.74C320.739 136.541 320.781 136.344 320.857 136.162V136.162Z" fill="#F8DF00"/>
</svg>
